<?xml version="1.0" encoding="UTF-8" standalone="no"?>
<!-- Created with Inkscape (http://www.inkscape.org/) -->

<svg
   xmlns:dc="http://purl.org/dc/elements/1.1/"
   xmlns:cc="http://creativecommons.org/ns#"
   xmlns:rdf="http://www.w3.org/1999/02/22-rdf-syntax-ns#"
   xmlns:svg="http://www.w3.org/2000/svg"
   xmlns="http://www.w3.org/2000/svg"
   xmlns:sodipodi="http://sodipodi.sourceforge.net/DTD/sodipodi-0.dtd"
   xmlns:inkscape="http://www.inkscape.org/namespaces/inkscape"
   width="779.71002"
   height="300"
   viewBox="0 0 206.29827 79.375"
   version="1.1"
   id="svg8"
   inkscape:version="0.92.4 (5da689c313, 2019-01-14)"
   sodipodi:docname="logo.svg">
  <defs
     id="defs2" />
  <sodipodi:namedview
     id="base"
     pagecolor="#ffffff"
     bordercolor="#666666"
     borderopacity="1.0"
     inkscape:pageopacity="0.0"
     inkscape:pageshadow="2"
     inkscape:zoom="1.4"
     inkscape:cx="332.03828"
     inkscape:cy="100.35556"
     inkscape:document-units="mm"
     inkscape:current-layer="layer1"
     showgrid="false"
     inkscape:showpageshadow="false"
     showborder="true"
     inkscape:snap-bbox="true"
     inkscape:bbox-nodes="true"
     inkscape:bbox-paths="true"
     inkscape:snap-bbox-edge-midpoints="true"
     inkscape:snap-bbox-midpoints="true"
     inkscape:snap-intersection-paths="true"
     inkscape:object-paths="true"
     inkscape:snap-smooth-nodes="true"
     inkscape:snap-midpoints="true"
     inkscape:snap-global="true"
     inkscape:window-width="1920"
     inkscape:window-height="1001"
     inkscape:window-x="-9"
     inkscape:window-y="-9"
     inkscape:window-maximized="1"
     inkscape:snap-page="true"
     units="px" />
  <metadata
     id="metadata5">
    <rdf:RDF>
      <cc:Work
         rdf:about="">
        <dc:format>image/svg+xml</dc:format>
        <dc:type
           rdf:resource="http://purl.org/dc/dcmitype/StillImage" />
        <dc:title></dc:title>
      </cc:Work>
    </rdf:RDF>
  </metadata>
  <g
     inkscape:label="Layer 1"
     inkscape:groupmode="layer"
     id="layer1"
     transform="translate(0,-217.625)">
    <g
       id="g854">
      <path
         sodipodi:nodetypes="ccsssccssscsc"
         d="M 1.6935094e-5,217.625 H 12.399269 v 58.6179 c 0,1.12839 0.695371,1.69258 2.086081,1.69258 1.364669,0 2.047003,-0.56419 2.047003,-1.69258 V 217.625 h 12.39905 v 57.94874 c 0,3.25395 -1.35143,5.77315 -4.054289,7.55757 -2.70286,1.78443 -6.166782,2.67664 -10.391764,2.67664 -3.909907,0 -7.3082052,-0.80037 -10.1948623,-2.4011 C 1.4301739,281.80611 1.6935094e-5,279.22132 1.6935094e-5,275.65247 Z"
         style="font-style:normal;font-variant:normal;font-weight:normal;font-stretch:normal;font-size:40px;line-height:1.25;font-family:Haettenschweiler;-inkscape-font-specification:'Haettenschweiler, Normal';font-variant-ligatures:normal;font-variant-caps:normal;font-variant-numeric:normal;font-feature-settings:normal;text-align:start;letter-spacing:0px;word-spacing:0px;writing-mode:lr-tb;text-anchor:start;fill:#3f51b5;fill-opacity:1;stroke:none;stroke-width:0.26458338"
         id="path825"
         inkscape:connector-curvature="0" />
      <path
         d="m 31.411287,266.91402 h 11.178765 v 9.68314 q 0,2.32238 1.889381,2.32238 1.889381,0 1.889381,-4.44795 0,-5.78626 -2.322295,-7.47884 -8.777843,-4.6054 -10.58843,-6.41606 -1.810621,-1.85003 -1.810621,-5.51073 v -6.14053 q 0,-9.64377 13.068146,-9.64377 12.714059,0 12.714059,9.25015 v 9.01397 H 46.486922 l 0.236214,-5.47136 q 0,-5.70754 -2.086114,-5.70754 -2.086283,0 -2.086283,3.58197 0,3.70007 0.90531,5.58946 0.944792,1.88939 10.312936,6.49478 3.896903,2.79473 3.896903,7.40012 v 6.84905 q 0,9.64378 -13.265047,9.64378 -12.989554,0 -12.989554,-9.25015 z"
         style="font-style:normal;font-variant:normal;font-weight:normal;font-stretch:normal;font-size:40px;line-height:1.25;font-family:Haettenschweiler;-inkscape-font-specification:'Haettenschweiler, Normal';font-variant-ligatures:normal;font-variant-caps:normal;font-variant-numeric:normal;font-feature-settings:normal;text-align:start;letter-spacing:0px;word-spacing:0px;writing-mode:lr-tb;text-anchor:start;fill:#3f51b5;fill-opacity:1;stroke:none;stroke-width:0.26458338"
         id="path827"
         inkscape:connector-curvature="0" />
      <path
         d="M 86.203673,265.92997 H 71.127837 v 10.66719 q 0,2.32238 1.968175,2.32238 1.928694,0 1.928694,-2.32238 v -9.21079 h 11.178967 v 9.28952 q 0,9.25015 -13.186455,9.25015 -13.068347,0 -13.068347,-9.64378 v -27.35683 q 0,-9.64377 13.068347,-9.64377 13.186455,0 13.186455,9.25015 z m -11.178967,-6.84905 v -10.47039 q 0,-2.24365 -1.928694,-2.24365 -1.968175,0 -1.968175,2.24365 v 10.47039 z"
         style="font-style:normal;font-variant:normal;font-weight:normal;font-stretch:normal;font-size:40px;line-height:1.25;font-family:Haettenschweiler;-inkscape-font-specification:'Haettenschweiler, Normal';font-variant-ligatures:normal;font-variant-caps:normal;font-variant-numeric:normal;font-feature-settings:normal;text-align:start;letter-spacing:0px;word-spacing:0px;writing-mode:lr-tb;text-anchor:start;fill:#3f51b5;fill-opacity:1;stroke:none;stroke-width:0.26458338"
         id="path829"
         inkscape:connector-curvature="0" />
      <path
         d="m 115.33176,258.52985 h -11.21825 v -9.91932 q 0,-2.0862 -1.92869,-2.0862 -1.9289,0 -1.9289,2.00748 v 36.76443 H 89.037644 v -45.69969 h 11.218276 v 1.53514 q 2.24367,-1.85003 6.92778,-1.85003 3.34588,0 5.74697,1.81066 2.40109,1.77131 2.40109,4.68413 z"
         style="font-style:normal;font-variant:normal;font-weight:normal;font-stretch:normal;font-size:40px;line-height:1.25;font-family:Haettenschweiler;-inkscape-font-specification:'Haettenschweiler, Normal';font-variant-ligatures:normal;font-variant-caps:normal;font-variant-numeric:normal;font-feature-settings:normal;text-align:start;letter-spacing:0px;word-spacing:0px;writing-mode:lr-tb;text-anchor:start;fill:#3f51b5;fill-opacity:1;stroke:none;stroke-width:0.26458338"
         id="path831"
         inkscape:connector-curvature="0" />
      <path
         sodipodi:nodetypes="ccccccccccccc"
         d="m 149.61652,285.29624 h -12.28115 l -2.08611,-15.1545 h -5.55007 l -2.08629,15.1545 h -12.28114 l 9.28955,-67.67124 h 15.70565 z m -15.39085,-22.98761 -1.77127,-16.84709 -1.69252,16.84709 z"
         style="font-style:normal;font-variant:normal;font-weight:normal;font-stretch:normal;font-size:40px;line-height:1.25;font-family:Haettenschweiler;-inkscape-font-specification:'Haettenschweiler, Normal';font-variant-ligatures:normal;font-variant-caps:normal;font-variant-numeric:normal;font-feature-settings:normal;text-align:start;letter-spacing:0px;word-spacing:0px;writing-mode:lr-tb;text-anchor:start;fill:#3f51b5;fill-opacity:1;stroke:none;stroke-width:0.26458338"
         id="path835"
         inkscape:connector-curvature="0" />
      <path
         sodipodi:nodetypes="ccccccscsscscsssssss"
         d="M 162.56655,284.23346 V 297 h -11.17873 v -57.40345 h 8.46287 l 0.94459,1.85004 c 1.83693,-1.44329 4.01498,-2.16493 6.53417,-2.16493 2.54551,0 4.89415,0.64291 7.04585,1.92875 2.17808,1.28584 3.26712,3.13587 3.26712,5.55009 v 32.8282 c 0,1.91563 -0.78727,3.45077 -2.36181,4.60539 -1.57437,1.15463 -3.48996,1.73195 -5.74677,1.73195 -3.1227,0 -5.44513,-0.5642 -6.96729,-1.69258 z m 3.89691,-7.47885 v -28.30153 c 0,-1.3908 -0.64289,-2.0862 -1.9287,-2.0862 -1.31215,0 -1.96821,0.6954 -1.96821,2.0862 v 28.38026 c 0,1.33832 0.65606,2.00748 1.96821,2.00748 1.28581,0 1.9287,-0.69541 1.9287,-2.08621 z"
         style="font-style:normal;font-variant:normal;font-weight:normal;font-stretch:normal;font-size:40px;line-height:1.25;font-family:Haettenschweiler;-inkscape-font-specification:'Haettenschweiler, Normal';font-variant-ligatures:normal;font-variant-caps:normal;font-variant-numeric:normal;font-feature-settings:normal;text-align:start;letter-spacing:0px;word-spacing:0px;writing-mode:lr-tb;text-anchor:start;fill:#3f51b5;fill-opacity:1;stroke:none;stroke-width:0.26458338"
         id="path837"
         inkscape:connector-curvature="0" />
      <path
         inkscape:connector-curvature="0"
         id="path850"
         style="font-style:normal;font-variant:normal;font-weight:normal;font-stretch:normal;font-size:40px;line-height:1.25;font-family:Haettenschweiler;-inkscape-font-specification:'Haettenschweiler, Normal';font-variant-ligatures:normal;font-variant-caps:normal;font-variant-numeric:normal;font-feature-settings:normal;text-align:start;letter-spacing:0px;word-spacing:0px;writing-mode:lr-tb;text-anchor:start;fill:#3f51b5;fill-opacity:1;stroke:none;stroke-width:0.26458338"
         d="M 191.22245,284.23346 V 297 h -11.17874 v -57.40345 h 8.46287 l 0.94459,1.85004 c 1.83693,-1.44329 4.01498,-2.16493 6.53418,-2.16493 2.5455,0 4.89414,0.64291 7.04584,1.92875 2.17809,1.28584 3.26713,3.13587 3.26713,5.55009 v 32.8282 c 0,1.91563 -0.78727,3.45077 -2.36181,4.60539 -1.57438,1.15463 -3.48997,1.73195 -5.74677,1.73195 -3.12271,0 -5.44514,-0.5642 -6.96729,-1.69258 z m 3.8969,-7.47885 v -28.30153 c 0,-1.3908 -0.64289,-2.0862 -1.9287,-2.0862 -1.31215,0 -1.9682,0.6954 -1.9682,2.0862 v 28.38026 c 0,1.33832 0.65605,2.00748 1.9682,2.00748 1.28581,0 1.9287,-0.69541 1.9287,-2.08621 z"
         sodipodi:nodetypes="ccccccscsscscsssssss" />
      <path
         d="m 33.780964,227.67774 h 3.257184 v 4.14764 q 0,0.41007 0.515526,0.41007 0.515525,0 0.515525,-0.41007 v -14.20039 h 3.690695 v 13.93091 q 0,3.02285 -4.182787,3.02285 -1.487994,0 -2.647927,-0.72642 -1.148216,-0.72642 -1.148216,-1.90979 z"
         style="font-style:normal;font-variant:normal;font-weight:normal;font-stretch:normal;font-size:23.99537086px;line-height:1.25;font-family:Haettenschweiler;-inkscape-font-specification:'Haettenschweiler, Normal';font-variant-ligatures:normal;font-variant-caps:normal;font-variant-numeric:normal;font-feature-settings:normal;text-align:start;letter-spacing:0px;word-spacing:0px;writing-mode:lr-tb;text-anchor:start;fill:#3f51b5;fill-opacity:1;stroke:none;stroke-width:0.26458338"
         id="path834"
         inkscape:connector-curvature="0" />
      <path
         d="m 50.301215,234.42644 h -3.327483 v -0.45695 q -0.644407,0.64441 -2.062102,0.64441 -0.984186,0 -1.710608,-0.51552 -0.714706,-0.52725 -0.714706,-1.37083 v -11.90396 h 3.327483 v 11.06037 q 0,0.62097 0.585825,0.62097 0.574108,0 0.574108,-0.59754 v -11.0838 h 3.327483 z"
         style="font-style:normal;font-variant:normal;font-weight:normal;font-stretch:normal;font-size:23.99537086px;line-height:1.25;font-family:Haettenschweiler;-inkscape-font-specification:'Haettenschweiler, Normal';font-variant-ligatures:normal;font-variant-caps:normal;font-variant-numeric:normal;font-feature-settings:normal;text-align:start;letter-spacing:0px;word-spacing:0px;writing-mode:lr-tb;text-anchor:start;fill:#3f51b5;fill-opacity:1;stroke:none;stroke-width:0.26458338"
         id="path836"
         inkscape:connector-curvature="0" />
      <path
         d="m 51.015921,228.95484 h 3.327483 v 2.88225 q 0,0.69128 0.562392,0.69128 0.562391,0 0.562391,-1.32397 0,-1.72232 -0.691273,-2.22613 -2.612777,-1.37083 -3.151735,-1.90979 -0.538959,-0.55067 -0.538959,-1.64031 v -1.82777 q 0,-2.87054 3.889875,-2.87054 3.784426,0 3.784426,2.75338 v 2.68307 h -3.257184 l 0.0703,-1.62859 q 0,-1.69889 -0.620974,-1.69889 -0.620974,0 -0.620974,1.0662 0,1.10135 0.269479,1.66374 0.281196,0.56239 3.06972,1.93322 1.159933,0.83187 1.159933,2.2027 v 2.03867 q 0,2.87054 -3.948457,2.87054 -3.866442,0 -3.866442,-2.75337 z"
         style="font-style:normal;font-variant:normal;font-weight:normal;font-stretch:normal;font-size:23.99537086px;line-height:1.25;font-family:Haettenschweiler;-inkscape-font-specification:'Haettenschweiler, Normal';font-variant-ligatures:normal;font-variant-caps:normal;font-variant-numeric:normal;font-feature-settings:normal;text-align:start;letter-spacing:0px;word-spacing:0px;writing-mode:lr-tb;text-anchor:start;fill:#3f51b5;fill-opacity:1;stroke:none;stroke-width:0.26458338"
         id="path838"
         inkscape:connector-curvature="0" />
      <path
         d="m 66.118476,234.42644 h -2.108968 q -2.261282,0 -2.706509,-0.67956 -0.445227,-0.67956 -0.445227,-2.61278 v -8.29527 h -1.487994 v -2.01524 h 1.487994 v -2.74166 h 3.3392 v 2.74166 h 1.804339 v 2.01524 h -1.804339 v 8.27184 q 0,0.59754 0.351495,0.80844 0.363211,0.19918 1.570009,0.19918 z"
         style="font-style:normal;font-variant:normal;font-weight:normal;font-stretch:normal;font-size:23.99537086px;line-height:1.25;font-family:Haettenschweiler;-inkscape-font-specification:'Haettenschweiler, Normal';font-variant-ligatures:normal;font-variant-caps:normal;font-variant-numeric:normal;font-feature-settings:normal;text-align:start;letter-spacing:0px;word-spacing:0px;writing-mode:lr-tb;text-anchor:start;fill:#3f51b5;fill-opacity:1;stroke:none;stroke-width:0.26458338"
         id="path840"
         inkscape:connector-curvature="0" />
      <path
         d="m 78.842584,234.42644 h -3.327483 v -0.45695 q -0.644407,0.64441 -2.062102,0.64441 -0.984185,0 -1.710607,-0.51552 -0.714706,-0.52725 -0.714706,-1.37083 v -11.90396 h 3.327483 v 11.06037 q 0,0.62097 0.585824,0.62097 0.574108,0 0.574108,-0.59754 v -11.0838 h 3.327483 z"
         style="font-style:normal;font-variant:normal;font-weight:normal;font-stretch:normal;font-size:23.99537086px;line-height:1.25;font-family:Haettenschweiler;-inkscape-font-specification:'Haettenschweiler, Normal';font-variant-ligatures:normal;font-variant-caps:normal;font-variant-numeric:normal;font-feature-settings:normal;text-align:start;letter-spacing:0px;word-spacing:0px;writing-mode:lr-tb;text-anchor:start;fill:#3f51b5;fill-opacity:1;stroke:none;stroke-width:0.26458338"
         id="path842"
         inkscape:connector-curvature="0" />
      <path
         d="m 79.557292,228.95484 h 3.327483 v 2.88225 q 0,0.69128 0.562391,0.69128 0.562392,0 0.562392,-1.32397 0,-1.72232 -0.691273,-2.22613 -2.612777,-1.37083 -3.151736,-1.90979 -0.538959,-0.55067 -0.538959,-1.64031 v -1.82777 q 0,-2.87054 3.889875,-2.87054 3.784426,0 3.784426,2.75338 v 2.68307 h -3.257184 l 0.0703,-1.62859 q 0,-1.69889 -0.620974,-1.69889 -0.620974,0 -0.620974,1.0662 0,1.10135 0.269479,1.66374 0.281196,0.56239 3.069721,1.93322 1.159932,0.83187 1.159932,2.2027 v 2.03867 q 0,2.87054 -3.948457,2.87054 -3.866441,0 -3.866441,-2.75337 z"
         style="font-style:normal;font-variant:normal;font-weight:normal;font-stretch:normal;font-size:23.99537086px;line-height:1.25;font-family:Haettenschweiler;-inkscape-font-specification:'Haettenschweiler, Normal';font-variant-ligatures:normal;font-variant-caps:normal;font-variant-numeric:normal;font-feature-settings:normal;text-align:start;letter-spacing:0px;word-spacing:0px;writing-mode:lr-tb;text-anchor:start;fill:#3f51b5;fill-opacity:1;stroke:none;stroke-width:0.26458338"
         id="path844"
         inkscape:connector-curvature="0" />
      <path
         d="M 95.866645,228.66192 H 91.37923 v 3.17517 q 0,0.69128 0.585824,0.69128 0.574108,0 0.574108,-0.69128 v -2.74166 h 3.327483 v 2.7651 q 0,2.75337 -3.925024,2.75337 -3.889874,0 -3.889874,-2.87054 v -8.14296 q 0,-2.87054 3.889874,-2.87054 3.925024,0 3.925024,2.75338 z m -3.327483,-2.03866 v -3.11659 q 0,-0.66784 -0.574108,-0.66784 -0.585824,0 -0.585824,0.66784 v 3.11659 z"
         style="font-style:normal;font-variant:normal;font-weight:normal;font-stretch:normal;font-size:23.99537086px;line-height:1.25;font-family:Haettenschweiler;-inkscape-font-specification:'Haettenschweiler, Normal';font-variant-ligatures:normal;font-variant-caps:normal;font-variant-numeric:normal;font-feature-settings:normal;text-align:start;letter-spacing:0px;word-spacing:0px;writing-mode:lr-tb;text-anchor:start;fill:#3f51b5;fill-opacity:1;stroke:none;stroke-width:0.26458338"
         id="path846"
         inkscape:connector-curvature="0" />
      <path
         d="m 104.17363,220.07374 h -3.3392 v -2.44875 h 3.3392 z m 0,14.3527 h -3.3392 v -13.60285 h 3.3392 z"
         style="font-style:normal;font-variant:normal;font-weight:normal;font-stretch:normal;font-size:23.99537086px;line-height:1.25;font-family:Haettenschweiler;-inkscape-font-specification:'Haettenschweiler, Normal';font-variant-ligatures:normal;font-variant-caps:normal;font-variant-numeric:normal;font-feature-settings:normal;text-align:start;letter-spacing:0px;word-spacing:0px;writing-mode:lr-tb;text-anchor:start;fill:#3f51b5;fill-opacity:1;stroke:none;stroke-width:0.26458338"
         id="path848"
         inkscape:connector-curvature="0" />
      <path
         d="m 111.48472,234.42644 h -2.10897 q -2.26128,0 -2.70651,-0.67956 -0.44522,-0.67956 -0.44522,-2.61278 v -8.29527 h -1.488 v -2.01524 h 1.488 v -2.74166 h 3.3392 v 2.74166 h 1.80434 v 2.01524 h -1.80434 v 8.27184 q 0,0.59754 0.35149,0.80844 0.36321,0.19918 1.57001,0.19918 z"
         style="font-style:normal;font-variant:normal;font-weight:normal;font-stretch:normal;font-size:23.99537086px;line-height:1.25;font-family:Haettenschweiler;-inkscape-font-specification:'Haettenschweiler, Normal';font-variant-ligatures:normal;font-variant-caps:normal;font-variant-numeric:normal;font-feature-settings:normal;text-align:start;letter-spacing:0px;word-spacing:0px;writing-mode:lr-tb;text-anchor:start;fill:#3f51b5;fill-opacity:1;stroke:none;stroke-width:0.26458338"
         id="path851"
         inkscape:connector-curvature="0" />
      <path
         d="m 115.45662,231.23955 h -3.3392 v -13.61456 h 3.3392 z m 0,3.18689 h -3.3392 v -2.44875 h 3.3392 z"
         style="font-style:normal;font-variant:normal;font-weight:normal;font-stretch:normal;font-size:23.99537086px;line-height:1.25;font-family:Haettenschweiler;-inkscape-font-specification:'Haettenschweiler, Normal';font-variant-ligatures:normal;font-variant-caps:normal;font-variant-numeric:normal;font-feature-settings:normal;text-align:start;letter-spacing:0px;word-spacing:0px;writing-mode:lr-tb;text-anchor:start;fill:#3f51b5;fill-opacity:1;stroke:none;stroke-width:0.26458338"
         id="path853"
         inkscape:connector-curvature="0" />
    </g>
  </g>
</svg>
