<?xml version="1.0" encoding="UTF-8" standalone="no"?>
<!-- Created with Inkscape (http://www.inkscape.org/) -->

<svg
   xmlns:dc="http://purl.org/dc/elements/1.1/"
   xmlns:cc="http://creativecommons.org/ns#"
   xmlns:rdf="http://www.w3.org/1999/02/22-rdf-syntax-ns#"
   xmlns:svg="http://www.w3.org/2000/svg"
   xmlns="http://www.w3.org/2000/svg"
   xmlns:sodipodi="http://sodipodi.sourceforge.net/DTD/sodipodi-0.dtd"
   xmlns:inkscape="http://www.inkscape.org/namespaces/inkscape"
   width="779.71002"
   height="300"
   viewBox="0 0 206.29827 79.375"
   version="1.1"
   id="svg8"
   inkscape:version="0.92.4 (5da689c313, 2019-01-14)"
   sodipodi:docname="imgs.svg">
  <defs
     id="defs2" />
  <sodipodi:namedview
     id="base"
     pagecolor="#ffffff"
     bordercolor="#666666"
     borderopacity="1.0"
     inkscape:pageopacity="0.0"
     inkscape:pageshadow="2"
     inkscape:zoom="0.7"
     inkscape:cx="972.23253"
     inkscape:cy="269.41629"
     inkscape:document-units="mm"
     inkscape:current-layer="layer1"
     showgrid="false"
     inkscape:showpageshadow="false"
     showborder="true"
     inkscape:snap-bbox="true"
     inkscape:bbox-nodes="true"
     inkscape:bbox-paths="true"
     inkscape:snap-bbox-edge-midpoints="true"
     inkscape:snap-bbox-midpoints="true"
     inkscape:snap-intersection-paths="true"
     inkscape:object-paths="true"
     inkscape:snap-smooth-nodes="true"
     inkscape:snap-midpoints="true"
     inkscape:snap-global="true"
     inkscape:window-width="1920"
     inkscape:window-height="1001"
     inkscape:window-x="-9"
     inkscape:window-y="-9"
     inkscape:window-maximized="1"
     inkscape:snap-page="true"
     units="px" />
  <metadata
     id="metadata5">
    <rdf:RDF>
      <cc:Work
         rdf:about="">
        <dc:format>image/svg+xml</dc:format>
        <dc:type
           rdf:resource="http://purl.org/dc/dcmitype/StillImage" />
        <dc:title></dc:title>
      </cc:Work>
    </rdf:RDF>
  </metadata>
  <g
     inkscape:label="Layer 1"
     inkscape:groupmode="layer"
     id="layer1"
     transform="translate(0,-217.625)">
    <g
       id="g869"
       transform="matrix(3.3600943,0,0,3.3600943,1005.2442,208.85948)"
       style="stroke-width:0.29761067">
      <path
         sodipodi:nodetypes="ccsssccssscsc"
         d="m -299.17142,2.6087123 h 3.69015 V 20.054027 c 0,0.33582 0.20695,0.50373 0.62084,0.50373 0.40614,0 0.60921,-0.16791 0.60921,-0.50373 V 2.6087123 h 3.69009 V 19.854878 c 0,0.968411 -0.4022,1.718149 -1.2066,2.249213 -0.8044,0.531065 -1.8353,0.796597 -3.0927,0.796597 -1.16363,0 -2.175,-0.238198 -3.0341,-0.714594 -0.85126,-0.476396 -1.27689,-1.245658 -1.27689,-2.307787 z"
         style="font-style:normal;font-variant:normal;font-weight:normal;font-stretch:normal;font-size:40px;line-height:1.25;font-family:Haettenschweiler;-inkscape-font-specification:'Haettenschweiler, Normal';font-variant-ligatures:normal;font-variant-caps:normal;font-variant-numeric:normal;font-feature-settings:normal;text-align:start;letter-spacing:0px;word-spacing:0px;writing-mode:lr-tb;text-anchor:start;fill:#3f51b5;fill-opacity:1;stroke:none;stroke-width:0.07874284"
         id="path825"
         inkscape:connector-curvature="0" />
      <path
         d="m -289.82309,17.277653 h 3.32692 v 2.881805 q 0,0.691165 0.5623,0.691165 0.5623,0 0.5623,-1.323756 0,-1.722054 -0.69114,-2.225785 -2.61238,-1.370614 -3.15123,-1.909488 -0.53886,-0.550589 -0.53886,-1.640052 v -1.827486 q 0,-2.870091 3.88922,-2.870091 3.78384,0 3.78384,2.752944 v 2.682656 h -3.25668 l 0.0703,-1.628337 q 0,-1.698625 -0.62085,-1.698625 -0.6209,0 -0.6209,1.066034 0,1.101178 0.26943,1.663481 0.28118,0.562304 3.06924,1.932918 1.15976,0.831741 1.15976,2.202355 v 2.03835 q 0,2.870091 -3.94782,2.870091 -3.86583,0 -3.86583,-2.752944 z"
         style="font-style:normal;font-variant:normal;font-weight:normal;font-stretch:normal;font-size:40px;line-height:1.25;font-family:Haettenschweiler;-inkscape-font-specification:'Haettenschweiler, Normal';font-variant-ligatures:normal;font-variant-caps:normal;font-variant-numeric:normal;font-feature-settings:normal;text-align:start;letter-spacing:0px;word-spacing:0px;writing-mode:lr-tb;text-anchor:start;fill:#3f51b5;fill-opacity:1;stroke:none;stroke-width:0.07874284"
         id="path827"
         inkscape:connector-curvature="0" />
      <path
         d="m -273.51629,16.984787 h -4.48673 v 3.174671 q 0,0.691165 0.58575,0.691165 0.574,0 0.574,-0.691165 v -2.741229 h 3.32698 v 2.764659 q 0,2.752944 -3.92443,2.752944 -3.88928,0 -3.88928,-2.870091 v -8.141685 q 0,-2.870091 3.88928,-2.870091 3.92443,0 3.92443,2.752944 z m -3.32698,-2.03835 v -3.116098 q 0,-0.667736 -0.574,-0.667736 -0.58575,0 -0.58575,0.667736 v 3.116098 z"
         style="font-style:normal;font-variant:normal;font-weight:normal;font-stretch:normal;font-size:40px;line-height:1.25;font-family:Haettenschweiler;-inkscape-font-specification:'Haettenschweiler, Normal';font-variant-ligatures:normal;font-variant-caps:normal;font-variant-numeric:normal;font-feature-settings:normal;text-align:start;letter-spacing:0px;word-spacing:0px;writing-mode:lr-tb;text-anchor:start;fill:#3f51b5;fill-opacity:1;stroke:none;stroke-width:0.07874284"
         id="path829"
         inkscape:connector-curvature="0" />
      <path
         d="m -264.84746,14.782432 h -3.33867 v -2.952093 q 0,-0.620877 -0.574,-0.620877 -0.57406,0 -0.57406,0.597447 v 10.941489 h -3.33868 V 9.1476822 h 3.33868 v 0.4568717 q 0.66774,-0.5505889 2.06178,-0.5505889 0.99577,0 1.71036,0.5388744 0.71459,0.5271596 0.71459,1.3940446 z"
         style="font-style:normal;font-variant:normal;font-weight:normal;font-stretch:normal;font-size:40px;line-height:1.25;font-family:Haettenschweiler;-inkscape-font-specification:'Haettenschweiler, Normal';font-variant-ligatures:normal;font-variant-caps:normal;font-variant-numeric:normal;font-feature-settings:normal;text-align:start;letter-spacing:0px;word-spacing:0px;writing-mode:lr-tb;text-anchor:start;fill:#3f51b5;fill-opacity:1;stroke:none;stroke-width:0.07874284"
         id="path831"
         inkscape:connector-curvature="0" />
      <path
         sodipodi:nodetypes="ccccccccccccc"
         d="m -254.64395,22.748398 h -3.655 l -0.62085,-4.510143 h -1.65176 l -0.6209,4.510143 h -3.655 l 2.76467,-20.1396868 h 4.67417 z m -4.58048,-6.841359 -0.52715,-5.013873 -0.50371,5.013873 z"
         style="font-style:normal;font-variant:normal;font-weight:normal;font-stretch:normal;font-size:40px;line-height:1.25;font-family:Haettenschweiler;-inkscape-font-specification:'Haettenschweiler, Normal';font-variant-ligatures:normal;font-variant-caps:normal;font-variant-numeric:normal;font-feature-settings:normal;text-align:start;letter-spacing:0px;word-spacing:0px;writing-mode:lr-tb;text-anchor:start;fill:#3f51b5;fill-opacity:1;stroke:none;stroke-width:0.07874284"
         id="path835"
         inkscape:connector-curvature="0" />
      <path
         sodipodi:nodetypes="ccccccscsscscsssssss"
         d="m -250.78988,22.432102 v 3.799458 h -3.32691 V 9.1476822 h 2.51864 l 0.28112,0.550589 c 0.54669,-0.4295375 1.1949,-0.6443062 1.94464,-0.6443062 0.75757,0 1.45655,0.1913395 2.09692,0.5740185 0.64822,0.3826785 0.97233,0.9332675 0.97233,1.6517665 v 9.770022 c 0,0.570113 -0.2343,1.026985 -0.7029,1.370615 -0.46855,0.34363 -1.03865,0.515445 -1.7103,0.515445 -0.92935,0 -1.62053,-0.16791 -2.07354,-0.50373 z m 1.15976,-2.225785 V 11.78348 c 0,-0.413918 -0.19133,-0.620877 -0.574,-0.620877 -0.39051,0 -0.58576,0.206959 -0.58576,0.620877 v 8.446267 c 0,0.398298 0.19525,0.597447 0.58576,0.597447 0.38267,0 0.574,-0.206959 0.574,-0.620877 z"
         style="font-style:normal;font-variant:normal;font-weight:normal;font-stretch:normal;font-size:40px;line-height:1.25;font-family:Haettenschweiler;-inkscape-font-specification:'Haettenschweiler, Normal';font-variant-ligatures:normal;font-variant-caps:normal;font-variant-numeric:normal;font-feature-settings:normal;text-align:start;letter-spacing:0px;word-spacing:0px;writing-mode:lr-tb;text-anchor:start;fill:#3f51b5;fill-opacity:1;stroke:none;stroke-width:0.07874284"
         id="path837"
         inkscape:connector-curvature="0" />
      <path
         inkscape:connector-curvature="0"
         id="path850"
         style="font-style:normal;font-variant:normal;font-weight:normal;font-stretch:normal;font-size:40px;line-height:1.25;font-family:Haettenschweiler;-inkscape-font-specification:'Haettenschweiler, Normal';font-variant-ligatures:normal;font-variant-caps:normal;font-variant-numeric:normal;font-feature-settings:normal;text-align:start;letter-spacing:0px;word-spacing:0px;writing-mode:lr-tb;text-anchor:start;fill:#3f51b5;fill-opacity:1;stroke:none;stroke-width:0.07874284"
         d="m -242.26158,22.432102 v 3.799458 h -3.32691 V 9.1476822 h 2.51864 l 0.28112,0.550589 c 0.54669,-0.4295375 1.1949,-0.6443062 1.94464,-0.6443062 0.75757,0 1.45655,0.1913395 2.09692,0.5740185 0.64822,0.3826785 0.97233,0.9332675 0.97233,1.6517665 v 9.770022 c 0,0.570113 -0.2343,1.026985 -0.7029,1.370615 -0.46855,0.34363 -1.03865,0.515445 -1.7103,0.515445 -0.92935,0 -1.62053,-0.16791 -2.07354,-0.50373 z m 1.15976,-2.225785 V 11.78348 c 0,-0.413918 -0.19133,-0.620877 -0.574,-0.620877 -0.39051,0 -0.58576,0.206959 -0.58576,0.620877 v 8.446267 c 0,0.398298 0.19525,0.597447 0.58576,0.597447 0.38267,0 0.574,-0.206959 0.574,-0.620877 z"
         sodipodi:nodetypes="ccccccscsscscsssssss" />
      <text
         id="text854"
         y="7.6090016"
         x="-289.22943"
         style="font-style:normal;font-variant:normal;font-weight:normal;font-stretch:normal;font-size:7.14127922px;line-height:1.25;font-family:Haettenschweiler;-inkscape-font-specification:'Haettenschweiler, Normal';font-variant-ligatures:normal;font-variant-caps:normal;font-variant-numeric:normal;font-feature-settings:normal;text-align:start;letter-spacing:0px;word-spacing:0px;writing-mode:lr-tb;text-anchor:start;fill:#3f51b5;fill-opacity:1;stroke:none;stroke-width:0.07874284"
         xml:space="preserve"><tspan
           style="font-style:normal;font-variant:normal;font-weight:normal;font-stretch:normal;font-size:7.14127922px;font-family:Haettenschweiler;-inkscape-font-specification:'Haettenschweiler, Normal';font-variant-ligatures:normal;font-variant-caps:normal;font-variant-numeric:normal;font-feature-settings:normal;text-align:start;writing-mode:lr-tb;text-anchor:start;fill:#3f51b5;fill-opacity:1;stroke-width:0.07874284"
           y="7.6090016"
           x="-289.22943"
           id="tspan852"
           sodipodi:role="line">Just use it!</tspan></text>
    </g>
  </g>
</svg>
