<?xml version="1.0" encoding="UTF-8" standalone="no"?>
<!-- Created with Inkscape (http://www.inkscape.org/) -->

<svg
   xmlns:dc="http://purl.org/dc/elements/1.1/"
   xmlns:cc="http://creativecommons.org/ns#"
   xmlns:rdf="http://www.w3.org/1999/02/22-rdf-syntax-ns#"
   xmlns:svg="http://www.w3.org/2000/svg"
   xmlns="http://www.w3.org/2000/svg"
   xmlns:sodipodi="http://sodipodi.sourceforge.net/DTD/sodipodi-0.dtd"
   xmlns:inkscape="http://www.inkscape.org/namespaces/inkscape"
   width="120"
   height="120"
   viewBox="0 0 31.749999 31.750001"
   version="1.1"
   id="svg2094"
   inkscape:version="0.92.4 (5da689c313, 2019-01-14)"
   sodipodi:docname="HRISInfoIcon.svg">
  <defs
     id="defs2088" />
  <sodipodi:namedview
     id="base"
     pagecolor="#ffffff"
     bordercolor="#666666"
     borderopacity="1.0"
     inkscape:pageopacity="0.0"
     inkscape:pageshadow="2"
     inkscape:zoom="0.98994949"
     inkscape:cx="141.1521"
     inkscape:cy="235.12967"
     inkscape:document-units="mm"
     inkscape:current-layer="layer1"
     showgrid="false"
     inkscape:snap-bbox="true"
     inkscape:bbox-nodes="true"
     inkscape:bbox-paths="true"
     inkscape:snap-bbox-edge-midpoints="true"
     inkscape:snap-bbox-midpoints="true"
     inkscape:snap-object-midpoints="true"
     inkscape:snap-center="true"
     inkscape:snap-global="true"
     units="px"
     inkscape:showpageshadow="false"
     inkscape:snap-page="true"
     inkscape:window-width="1920"
     inkscape:window-height="1001"
     inkscape:window-x="-9"
     inkscape:window-y="-9"
     inkscape:window-maximized="1" />
  <metadata
     id="metadata2091">
    <rdf:RDF>
      <cc:Work
         rdf:about="">
        <dc:format>image/svg+xml</dc:format>
        <dc:type
           rdf:resource="http://purl.org/dc/dcmitype/StillImage" />
        <dc:title></dc:title>
      </cc:Work>
    </rdf:RDF>
  </metadata>
  <g
     inkscape:label="Layer 1"
     inkscape:groupmode="layer"
     id="layer1"
     transform="translate(0,-265.24998)">
    <g
       id="g2729"
       transform="translate(-87.064215,96.361096)">
      <circle
         r="13.229167"
         cy="184.76387"
         cx="102.93922"
         id="path817"
         style="opacity:1;fill:#aaaaaa;fill-opacity:1;stroke:none;stroke-width:0.56123734;stroke-linecap:round;stroke-linejoin:miter;stroke-miterlimit:4;stroke-dasharray:none;stroke-dashoffset:0;stroke-opacity:1;paint-order:fill markers stroke" />
      <g
         transform="translate(-5.2452088e-6,2.861023e-6)"
         id="g2715">
        <rect
           style="opacity:1;fill:#ffffff;fill-opacity:1;stroke:none;stroke-width:1.58749998;stroke-linecap:round;stroke-linejoin:miter;stroke-miterlimit:4;stroke-dasharray:none;stroke-dashoffset:0;stroke-opacity:1;paint-order:fill markers stroke"
           id="rect2669"
           width="11.622767"
           height="15.827753"
           x="97.127838"
           y="176.84999" />
        <g
           id="g2692"
           transform="translate(0.05607236)">
          <path
             d="m 100.23187,181.42581 h -0.398903 v -1.46868 H 98.33608 v 1.46868 h -0.398901 v -2.99982 h 0.398901 v 1.17656 h 1.496887 v -1.17656 h 0.398903 z"
             style="font-style:normal;font-weight:normal;font-size:4.12600851px;line-height:1.25;font-family:sans-serif;letter-spacing:0px;word-spacing:0px;fill:#aaaaaa;fill-opacity:1;stroke:none;stroke-width:0.10315021"
             id="path2675"
             inkscape:connector-curvature="0" />
          <path
             d="m 103.5218,181.42581 h -0.51777 l -1.0033,-1.19267 h -0.56208 v 1.19267 h -0.39891 v -2.99982 h 0.84011 q 0.27198,0 0.4533,0.0363 0.18132,0.0343 0.32637,0.12491 0.16319,0.10274 0.25385,0.25989 0.0927,0.15512 0.0927,0.39487 0,0.32436 -0.16318,0.54395 -0.16319,0.21759 -0.44927,0.32839 z m -0.93279,-2.15568 q 0,-0.12893 -0.0463,-0.22765 -0.0443,-0.10073 -0.14908,-0.16923 -0.0866,-0.0584 -0.20549,-0.0806 -0.11887,-0.0242 -0.28004,-0.0242 h -0.46941 v 1.13224 h 0.40293 q 0.18937,0 0.3304,-0.0322 0.14102,-0.0343 0.23974,-0.12491 0.0907,-0.0846 0.13297,-0.19341 0.0443,-0.11081 0.0443,-0.28004 z"
             style="font-style:normal;font-weight:normal;font-size:4.12600851px;line-height:1.25;font-family:sans-serif;letter-spacing:0px;word-spacing:0px;fill:#aaaaaa;fill-opacity:1;stroke:none;stroke-width:0.10315021"
             id="path2677"
             inkscape:connector-curvature="0" />
          <path
             d="m 104.9663,181.42581 h -1.18461 v -0.30623 h 0.39285 v -2.38736 h -0.39285 v -0.30623 h 1.18461 v 0.30623 h -0.39286 v 2.38736 h 0.39286 z"
             style="font-style:normal;font-weight:normal;font-size:4.12600851px;line-height:1.25;font-family:sans-serif;letter-spacing:0px;word-spacing:0px;fill:#aaaaaa;fill-opacity:1;stroke:none;stroke-width:0.10315021"
             id="path2679"
             inkscape:connector-curvature="0" />
          <path
             d="m 107.82912,180.56958 q 0,0.17528 -0.0826,0.34652 -0.0806,0.17125 -0.22765,0.29011 -0.16118,0.12894 -0.37674,0.20147 -0.21356,0.0725 -0.51575,0.0725 -0.32436,0 -0.58425,-0.0604 -0.25788,-0.0604 -0.52583,-0.17931 v -0.49963 h 0.0282 q 0.22765,0.18938 0.52582,0.29212 0.29817,0.10275 0.56007,0.10275 0.3707,0 0.5762,-0.13901 0.2075,-0.13901 0.2075,-0.3707 0,-0.19945 -0.0987,-0.29413 -0.0967,-0.0947 -0.29616,-0.14707 -0.1511,-0.0403 -0.32839,-0.0665 -0.17527,-0.0262 -0.37271,-0.0665 -0.3989,-0.0846 -0.5923,-0.2881 -0.1914,-0.20549 -0.1914,-0.53388 0,-0.37674 0.31832,-0.61648 0.31831,-0.24176 0.80787,-0.24176 0.3163,0 0.58022,0.0604 0.26392,0.0604 0.4674,0.14908 v 0.47143 h -0.0282 q -0.17125,-0.14505 -0.45128,-0.23974 -0.27803,-0.0967 -0.57015,-0.0967 -0.32033,0 -0.51575,0.13297 -0.19341,0.13297 -0.19341,0.34249 0,0.18736 0.0967,0.29414 0.0967,0.10678 0.34047,0.16319 0.12894,0.0282 0.36667,0.0685 0.23773,0.0403 0.40293,0.0826 0.33443,0.0886 0.50366,0.26795 0.16923,0.1793 0.16923,0.50164 z"
             style="font-style:normal;font-weight:normal;font-size:4.12600851px;line-height:1.25;font-family:sans-serif;letter-spacing:0px;word-spacing:0px;fill:#aaaaaa;fill-opacity:1;stroke:none;stroke-width:0.10315021"
             id="path2681"
             inkscape:connector-curvature="0" />
        </g>
        <g
           id="g2703"
           transform="translate(0.05716038,0.33072917)">
          <rect
             y="183.41045"
             x="98.154732"
             height="0.76839989"
             width="9.4546595"
             id="rect2694"
             style="opacity:1;fill:#aaaaaa;fill-opacity:1;stroke:none;stroke-width:1.58749998;stroke-linecap:round;stroke-linejoin:miter;stroke-miterlimit:4;stroke-dasharray:none;stroke-dashoffset:0;stroke-opacity:1;paint-order:fill markers stroke" />
          <rect
             style="opacity:1;fill:#aaaaaa;fill-opacity:1;stroke:none;stroke-width:1.58749998;stroke-linecap:round;stroke-linejoin:miter;stroke-miterlimit:4;stroke-dasharray:none;stroke-dashoffset:0;stroke-opacity:1;paint-order:fill markers stroke"
             id="rect2696"
             width="9.4546595"
             height="0.76839989"
             x="98.154732"
             y="186.26688" />
          <rect
             y="189.12332"
             x="98.154732"
             height="0.76839989"
             width="9.4546595"
             id="rect2698"
             style="opacity:1;fill:#aaaaaa;fill-opacity:1;stroke:none;stroke-width:1.58749998;stroke-linecap:round;stroke-linejoin:miter;stroke-miterlimit:4;stroke-dasharray:none;stroke-dashoffset:0;stroke-opacity:1;paint-order:fill markers stroke" />
        </g>
      </g>
    </g>
  </g>
</svg>
